<svg xmlns="http://www.w3.org/2000/svg" data-laicon-version="5.0" width="20" height="15" viewBox="0 0 20 20"><g transform="translate(-2 -2)">
  <path d="M11.6587 2.3554a.75.75 0 0 1 .5314-.0773l.1052.032.0967.0449 3.8688 2.2012a.75.75 0 0 1 .3792.652l-.0001 3.6925.0614.0481c1.15.9223 1.7483 1.8279 2.048 3.1226l2.8577 1.6269a.75.75 0 0 1 .3791.652v4.4015a.75.75 0 0 1-.3761.6501l-3.8919 2.238a.75.75 0 0 1-.7473.0003l-3.657-2.0985c-.4548.0937-.9406.1376-1.4748.1376-.3683 0-.6992-.041-1.163-.1326l-3.6404 2.0932a.75.75 0 0 1-.7473.0003l-3.8979-2.238a.75.75 0 0 1-.3765-.6505v-4.401a.75.75 0 0 1 .3834-.6544l2.674-1.5c.1385-1.7627.8618-3.0736 2.278-4.0296l.001-2.9581a.75.75 0 0 1 .3834-.6543ZM17.369 12.783l-3.373 1.89.0005 3.281c.2841-.1345.5597-.3039.84-.5121a.65.65 0 0 1 .7753 1.0435 6.633 6.633 0 0 1-.7144.4656l2.4315 1.3947.0001-3.7605 3.3229-1.9355-3.015-1.715-.0477.0078-.0063-.0378-.2139-.1217Zm-10.683 0-3.373 1.89v3.759l3.3329 1.9137.0006-3.7605 3.3224-1.9355L6.686 12.783Zm.6954-2.9591-.0298.0305c-.413.4413-.6893.9562-.846 1.5713a.7364.7364 0 0 1 .3482-.0056l.1052.032.096.0449 3.8695 2.2013a.75.75 0 0 1 .3791.652l.001 3.987c.198.029.3649.042.5344.042.3077 0 .5916-.0165.8583-.0513l-.001-3.9774a.75.75 0 0 1 .3835-.6543l3.925-2.1988a.7497.7497 0 0 1 .1519-.0643c-.2086-.4214-.5002-.7905-.9092-1.1642l-3.8755 2.2289a.75.75 0 0 1-.7473.0002l-3.898-2.238a.75.75 0 0 1-.3453-.4362ZM12.023 3.641 8.65 5.531v3.76l3.3329 1.9137V7.4431l3.323-1.9354L12.023 3.641Z" fill="#6CA4F9"/>
</g></svg>