<svg xmlns="http://www.w3.org/2000/svg" data-laicon-version="15.0" width="20" height="15" viewBox="0 0 20 20"><g transform="translate(-2 -2)">
  <path d="m11.4648 11.7065 7.8305-7.8292.9192.9193-7.8306 7.8293-.9191-.9194Z" fill="#6CA4F9"/>
  <path d="M19.4577 4.622h-4.5378v-1.3h5.8378v5.8258h-1.3V4.622ZM4.6501 6.2304a.1855.1855 0 0 1 .0096-.0203c.017-.0317.0485-.0742.095-.1172a.5567.5567 0 0 1 .1423-.0965c.0466-.0212.0735-.0232.0784-.0232h7.9551v-1.3H4.9754c-.4423 0-.8362.2189-1.102.464-.258.238-.5233.621-.5233 1.0764V19.008c0 1.0888.8996 1.7028 1.7026 1.7028h12.5511c.961 0 1.7482-.683 1.7482-1.5846v-7.9591h-1.3v7.9591c0 .0645-.08.2846-.4482.2846H5.0527a.435.435 0 0 1-.2822-.1089c-.0674-.0607-.1204-.1504-.1204-.2939V6.2304Z" fill="#6CA4F9"/>
</g></svg>